<svg width="36" height="36" viewBox="0 0 36 36" fill="none" xmlns="http://www.w3.org/2000/svg">
<rect width="36" height="36" rx="8" fill="#FF3629"/>
<path d="M14.4545 14.4546H16.2273V25.091H14.4545V14.4546Z" fill="white"/>
<path d="M19.7727 14.4546H21.5455V25.091H19.7727V14.4546Z" fill="white"/>
<path d="M7.36362 9.13672V10.9094H9.13634V28.6367C9.13634 29.1069 9.32311 29.5578 9.65556 29.8902C9.98801 30.2227 10.4389 30.4094 10.9091 30.4094H25.0909C25.561 30.4094 26.0119 30.2227 26.3444 29.8902C26.6768 29.5578 26.8636 29.1069 26.8636 28.6367V10.9094H28.6363V9.13672H7.36362ZM10.9091 28.6367V10.9094H25.0909V28.6367H10.9091Z" fill="white"/>
<path d="M14.4545 5.59131H21.5454V7.36404H14.4545V5.59131Z" fill="white"/>
</svg>
